<?xml version="1.0" encoding="UTF-8" standalone="no"?>
<!DOCTYPE svg PUBLIC "-//W3C//DTD SVG 1.1//EN" "http://www.w3.org/Graphics/SVG/1.1/DTD/svg11.dtd">
<svg width="100%" height="100%" viewBox="0 0 16 16" version="1.1" xmlns="http://www.w3.org/2000/svg" xmlns:xlink="http://www.w3.org/1999/xlink" xml:space="preserve" xmlns:serif="http://www.serif.com/" style="fill-rule:evenodd;clip-rule:evenodd;stroke-linejoin:round;stroke-miterlimit:1.41421;">
    <g id="Artboard1" transform="matrix(0.0367209,0,0,0.0367209,-3.01626,-2.72837)">
        <rect x="82.14" y="74.3" width="435.72" height="435.72" style="fill:none;"/>
        <clipPath id="_clip1">
            <rect x="82.14" y="74.3" width="435.72" height="435.72"/>
        </clipPath>
        <g clip-path="url(#_clip1)">
            <g transform="matrix(1,0,0,1,82,74)">
                <path d="M383.573,0.3C412.432,0.301 435.86,23.729 435.86,52.587L435.86,383.733C435.86,412.591 412.431,436.02 383.573,436.02L52.427,436.02C23.569,436.02 0.14,412.591 0.14,383.733L0.14,52.587C0.14,23.729 23.568,0.301 52.427,0.3L383.573,0.3ZM358.557,63.397L241,63.397L241,372.923L358.557,372.923L358.557,63.397ZM202.618,63.397L155.618,63.988L68.871,87.247L82.435,147.009L133.136,132.909L133.065,372.923L203.929,372.923L202.618,63.397Z"/>
            </g>
            <g transform="matrix(4.84946e-17,-0.791977,0.791977,4.84946e-17,334.711,387.512)">
                <path d="M0,118.275C5.499,118.275 10.483,117.785 14.975,116.858C19.466,115.905 23.578,114.545 27.308,112.776C31.04,111.004 34.497,108.855 37.709,106.348C40.895,103.844 43.97,101.013 46.884,97.855L30.875,81.682C27.908,84.431 24.967,86.772 22,88.789C19.032,90.776 15.847,92.327 12.414,93.418C9.013,94.505 5.146,95.077 0.816,95.077C-4.112,95.049 -8.577,94.096 -12.634,92.219C-16.69,90.339 -20.176,87.753 -23.117,84.459C-26.058,81.163 -28.317,77.352 -29.922,73.023C-31.53,68.695 -32.319,64.066 -32.346,59.138L-32.346,58.81C-32.319,53.882 -31.502,49.254 -29.869,44.98C-28.263,40.677 -25.948,36.92 -23.007,33.652C-20.04,30.385 -16.528,27.854 -12.497,26.002C-8.469,24.151 -4.031,23.225 0.816,23.198C4.602,23.198 8.167,23.715 11.517,24.749C14.867,25.783 18.052,27.281 21.101,29.187C24.149,31.12 27.119,33.406 30.06,36.104L46.068,17.643C42.556,14.131 38.69,11.054 34.441,8.412C30.194,5.773 25.347,3.729 19.902,2.259C14.431,0.762 8.141,0.026 0.98,0C-6.072,0.026 -12.634,1.034 -18.707,3.021C-24.803,5.01 -30.277,7.814 -35.178,11.462C-40.079,15.084 -44.272,19.358 -47.783,24.286C-51.27,29.187 -53.937,34.605 -55.816,40.515C-57.695,46.396 -58.622,52.603 -58.648,59.138L-58.648,59.464C-58.622,66.053 -57.668,72.288 -55.789,78.196C-53.883,84.077 -51.187,89.467 -47.703,94.341C-44.191,99.243 -40.025,103.463 -35.178,107.03C-30.332,110.597 -24.94,113.346 -19.032,115.307C-13.097,117.267 -6.753,118.248 0,118.275" style="fill-rule:nonzero;"/>
            </g>
            <g transform="matrix(4.84946e-17,-0.791977,0.791977,4.84946e-17,336.263,334.467)">
                <path d="M0,114.354L25.158,114.354L25.158,77.762L44.924,77.762L69.431,114.354L98.836,114.354L70.9,73.513C75.772,71.716 80.048,69.212 83.724,66.027C87.372,62.841 90.229,58.92 92.273,54.265C94.342,49.609 95.376,44.218 95.404,38.064L95.404,37.737C95.404,32.319 94.56,27.418 92.898,23.007C91.239,18.596 88.789,14.784 85.603,11.598C81.844,7.814 77.161,4.955 71.579,2.967C65.997,1.007 59.546,0 52.275,0L0,0L0,114.354ZM25.158,55.544L25.158,22.708L50.152,22.708C54.265,22.708 57.776,23.306 60.717,24.531C63.684,25.756 65.943,27.582 67.523,30.005C69.102,32.427 69.92,35.45 69.92,39.045L69.92,39.371C69.92,42.61 69.156,45.443 67.659,47.837C66.135,50.261 63.956,52.14 61.097,53.502C58.212,54.836 54.754,55.517 50.643,55.544L25.158,55.544Z" style="fill-rule:nonzero;"/>
            </g>
            <g transform="matrix(4.84946e-17,-0.791977,0.791977,4.84946e-17,374.759,183.749)">
                <path d="M0,17.14L17.166,-8.91L17.166,65.748L42.159,65.748L42.159,-48.608L15.04,-48.608L-12.912,-3.64L0,17.14Z" style="fill-rule:nonzero;"/>
            </g>
            <g transform="matrix(4.84946e-17,-0.791977,0.791977,4.84946e-17,336.263,240.925)">
                <path d="M0,114.356L24.668,114.356L24.668,40.188L56.523,88.544L57.175,88.544L70.026,69.04L35.364,13.266L27.119,0L0,0L0,114.356Z" style="fill-rule:nonzero;"/>
            </g>
        </g>
    </g>
</svg>
